<svg xmlns="http://www.w3.org/2000/svg" width="860" height="240" viewBox="0 0 860 240" role="img" aria-label="TrendWatch report">
  <defs>
    <linearGradient id="lg" x1="2" y1="20" x2="22" y2="4" gradientUnits="userSpaceOnUse">
      <stop offset="0%" stop-color="#2ecf8e"/><stop offset="40%" stop-color="#5be5a8"/>
      <stop offset="78%" stop-color="#b8f5d8"/><stop offset="100%" stop-color="#ffffff"/>
    </linearGradient>
  </defs>
  <rect width="860" height="240" rx="18" fill="#061410"/>
  <rect x="0.5" y="0.5" width="859" height="239" rx="18" fill="none" stroke="#15392a"/>
  <g transform="translate(40,34) scale(1.5)">
    <path d="M20.684 4.042A1.029 1.029 0 0 1 22 5.03l-.001 5.712a1.03 1.03 0 0 1-1.647.823L18.71 10.33l-4.18 5.568a1.647 1.647 0 0 1-2.155.428l-.15-.1-3.337-2.507-4.418 5.885c-.42.56-1.185.707-1.777.368l-.144-.095a1.372 1.372 0 0 1-.368-1.776l.095-.144 5.077-6.762a1.646 1.646 0 0 1 2.156-.428l.149.1 3.336 2.506 3.522-4.69-1.647-1.237a1.03 1.03 0 0 1 .194-1.76l.137-.05 5.485-1.595-.001.001z" fill="url(#lg)"/>
  </g>
  <text x="92" y="52" font-family="Segoe UI, Helvetica, Arial, sans-serif" font-size="26" font-weight="800" fill="#f4fbf8">TrendWatch</text>
  <text x="820" y="52" font-family="Segoe UI, Helvetica, Arial, sans-serif" font-size="15" fill="#6f857d" text-anchor="end">2026-07-19 14:23 UTC</text>
  <line x1="40" y1="74" x2="820" y2="74" stroke="#13352700" />
  <g font-family="Segoe UI, Helvetica, Arial, sans-serif">
  <text x="40" y="132" font-size="17" font-weight="700" fill="#7fe9bf">BREAKOUTS</text>
  <text x="44" y="150" font-size="18" fill="#8aa49a">All quiet - no watchlist breakouts this run.</text>
  </g>
  <text x="40" y="218" font-family="Segoe UI, Helvetica, Arial, sans-serif" font-size="14" fill="#54655e">Powered by Trends MCP · trendsmcp.ai</text>
</svg>
